<svg width="32" height="32" viewBox="0 0 32 32" fill="none" xmlns="http://www.w3.org/2000/svg">
<path fill-rule="evenodd" clip-rule="evenodd" d="M21.3969 16.9731L21.3725 11.338C21.3714 11.0479 21.256 10.7731 21.0509 10.5681C20.8455 10.363 20.5704 10.2464 20.2798 10.2464C19.9893 10.2464 19.7142 10.363 19.5092 10.5681C19.3041 10.7731 19.1874 11.0481 19.1874 11.3385V20.6617C19.1874 21.5099 18.8502 22.3167 18.2508 22.9162C17.6511 23.5156 16.8439 23.8527 15.9953 23.8527C15.1472 23.8527 14.3399 23.5156 13.7402 22.9162C13.1406 22.3167 12.8034 21.5099 12.8034 20.6617V11.3385C12.8034 11.0481 12.687 10.7731 12.4817 10.5681C12.2766 10.363 12.0015 10.2464 11.7109 10.2464C11.4204 10.2464 11.1453 10.363 10.9402 10.5681C10.7352 10.7731 10.6197 11.0479 10.6185 11.338L10.5941 16.9731C10.5063 17.6786 10.1849 18.3315 9.68168 18.8342C9.08204 19.4337 8.27485 19.7707 7.42627 19.7707C6.57784 19.7707 5.77064 19.4337 5.17116 18.8342C4.66814 18.3313 4.34622 17.6782 4.25878 16.9725L4.23265 15.4228L1.35098 15.4221H0L0.0107347 15.2022C0.205843 11.23 1.86613 7.49805 4.67872 4.68642C7.68983 1.67615 11.7373 0 15.9956 0C20.254 0 24.3013 1.67615 27.3124 4.68642C29.2828 6.65624 30.7111 9.10795 31.4421 11.7972L31.5138 12.0616H29.3352L29.2899 11.9134C28.6239 9.74584 27.4313 7.77322 25.8278 6.17032C23.2116 3.55483 19.6956 2.09893 15.9956 2.09893C12.2954 2.09893 8.77958 3.55483 6.16335 6.17032C4.23964 8.09364 2.9187 10.5345 2.3732 13.1997L2.34768 13.3237H6.33403V16.5796C6.33403 16.87 6.45072 17.145 6.65579 17.35C6.86086 17.5553 7.13594 17.6716 7.42658 17.6716C7.71706 17.6716 7.99214 17.555 8.19721 17.35C8.40228 17.145 8.51897 16.87 8.51897 16.5796V11.3383C8.51897 10.4901 8.85613 9.68331 9.45577 9.08384C10.0554 8.48437 10.8628 8.1473 11.7112 8.1473C12.5596 8.1473 13.3668 8.48437 13.9663 9.08384C14.5659 9.68331 14.9031 10.4903 14.9031 11.3383V20.6615C14.9031 20.9519 15.0198 21.2269 15.2249 21.4319C15.4299 21.637 15.7052 21.7536 15.9956 21.7536C16.2861 21.7536 16.5612 21.637 16.7664 21.4319C16.9715 21.2269 17.088 20.9519 17.088 20.6615V11.3383C17.088 10.4901 17.4252 9.68331 18.0248 9.08384C18.6245 8.48437 19.4318 8.1473 20.2803 8.1473C21.1287 8.1473 21.9357 8.48437 22.5354 9.08384C23.135 9.68331 23.4722 10.4903 23.4722 11.3383V16.5796C23.4722 16.87 23.5889 17.145 23.7939 17.35C23.999 17.5553 24.2742 17.6716 24.5647 17.6716C24.8552 17.6716 25.1303 17.555 25.3353 17.35C25.5407 17.145 25.6574 16.87 25.6574 16.5796V13.3237H29.6431L29.6428 13.3221H31.7777L31.8055 13.4991C31.9351 14.3262 32 15.163 32 16C32 20.2573 30.3235 24.3033 27.3124 27.3137C24.3013 30.324 20.2541 32 15.9956 32C11.7372 32 7.68983 30.324 4.67872 27.3137C1.89274 24.5284 0.235561 20.8376 0.0166472 16.904L0.00404547 16.6828H2.10574L2.11803 16.8791C2.32932 20.2629 3.76588 23.4326 6.16319 25.8295C8.77942 28.445 12.2956 29.9009 15.9955 29.9009C19.6954 29.9009 23.2114 28.445 25.8276 25.8295C28.4439 23.2137 29.9002 19.6989 29.9002 16C29.9002 15.841 29.8975 15.6818 29.8921 15.5228L29.8888 15.4228H27.7582L27.7322 16.9725C27.6444 17.6782 27.3227 18.3313 26.8197 18.8342C26.22 19.4337 25.4128 19.7707 24.5642 19.7707C23.716 19.7707 22.9086 19.4337 22.3091 18.8342C21.8063 18.3315 21.4845 17.6786 21.3968 16.9731H21.3969Z" fill="url(#paint0_linear_124_1191)"/>
<defs>
<linearGradient id="paint0_linear_124_1191" x1="6.74572" y1="27.3826" x2="24.8846" y2="5.30981" gradientUnits="userSpaceOnUse">
<stop stop-color="#E78B1F"/>
<stop offset="1" stop-color="#FFDB45"/>
</linearGradient>
</defs>
</svg>
