<svg width="256" height="256" viewBox="0 0 256 256" fill="none" xmlns="http://www.w3.org/2000/svg">
<path fill-rule="evenodd" clip-rule="evenodd" d="M171.175 135.785L170.98 90.704C170.971 88.3833 170.048 86.1845 168.407 84.5444C166.764 82.9044 164.563 81.9711 162.238 81.9711C159.914 81.9711 157.714 82.9044 156.073 84.5444C154.433 86.1845 153.499 88.3845 153.499 90.7077V165.294C153.499 172.079 150.802 178.534 146.006 183.329C141.209 188.125 134.751 190.822 127.963 190.822C121.178 190.822 114.719 188.125 109.922 183.329C105.125 178.534 102.427 172.079 102.427 165.294V90.7077C102.427 88.3845 101.496 86.1845 99.8533 84.5444C98.2128 82.9044 96.0121 81.9711 93.687 81.9711C91.3631 81.9711 89.1625 82.9044 87.5219 84.5444C85.8814 86.1845 84.9578 88.3833 84.9479 90.704L84.7525 135.785C84.0504 141.429 81.4789 146.652 77.4535 150.673C72.6564 155.469 66.1988 158.166 59.4101 158.166C52.6227 158.166 46.1651 155.469 41.3693 150.673C37.3451 146.65 34.7698 141.425 34.0703 135.78L33.8612 123.382L10.8078 123.377H0L0.0858779 121.618C1.64675 89.8404 14.9291 59.9844 37.4297 37.4913C61.5187 13.4092 93.8986 0 127.965 0C162.032 0 194.41 13.4092 218.499 37.4913C234.262 53.2499 245.689 72.8636 251.536 94.3774L252.11 96.4928H234.682L234.32 95.3069C228.991 77.9667 219.45 62.1857 206.622 49.3626C185.692 28.4387 157.564 16.7914 127.965 16.7914C98.3634 16.7914 70.2366 28.4387 49.3068 49.3626C33.9172 64.7491 23.3496 84.2756 18.9856 105.598L18.7815 106.589H50.6723V132.637C50.6723 134.96 51.6058 137.16 53.2463 138.8C54.8868 140.442 57.0875 141.373 59.4126 141.373C61.7365 141.373 63.9372 140.44 65.5777 138.8C67.2182 137.16 68.1517 134.96 68.1517 132.637V90.7065C68.1517 83.921 70.849 77.4665 75.6461 72.6707C80.4433 67.875 86.9021 65.1784 93.6895 65.1784C100.477 65.1784 106.934 67.875 111.73 72.6707C116.527 77.4665 119.225 83.9222 119.225 90.7065V165.292C119.225 167.615 120.158 169.816 121.799 171.456C123.439 173.096 125.641 174.029 127.965 174.029C130.289 174.029 132.49 173.096 134.131 171.456C135.772 169.816 136.704 167.615 136.704 165.292V90.7065C136.704 83.921 139.402 77.4665 144.199 72.6707C148.996 67.875 155.455 65.1784 162.242 65.1784C169.029 65.1784 175.486 67.875 180.283 72.6707C185.08 77.4665 187.777 83.9222 187.777 90.7065V132.637C187.777 134.96 188.711 137.16 190.351 138.8C191.992 140.442 194.194 141.373 196.518 141.373C198.842 141.373 201.042 140.44 202.683 138.8C204.326 137.16 205.259 134.96 205.259 132.637V106.589H237.145L237.143 106.577H254.221L254.444 107.993C255.481 114.609 256 121.304 256 128C256 162.058 242.588 194.427 218.499 218.51C194.41 242.592 162.033 256 127.965 256C93.8974 256 61.5187 242.592 37.4297 218.51C15.1419 196.227 1.88449 166.701 0.133178 135.232L0.0323637 133.463H16.8459L16.9443 135.033C18.6346 162.103 30.127 187.461 49.3055 206.636C70.2354 227.56 98.3646 239.207 127.964 239.207C157.563 239.207 185.691 227.56 206.621 206.636C227.551 185.71 239.201 157.591 239.201 128C239.201 126.728 239.18 125.454 239.137 124.182L239.111 123.382H222.065L221.858 135.78C221.156 141.425 218.581 146.65 214.557 150.673C209.76 155.469 203.303 158.166 196.514 158.166C189.728 158.166 183.269 155.469 178.473 150.673C174.45 146.652 171.876 141.429 171.174 135.785H171.175Z" fill="url(#paint0_linear_99_1555)"/>
<defs>
<linearGradient id="paint0_linear_99_1555" x1="53.9658" y1="219.061" x2="199.077" y2="42.4785" gradientUnits="userSpaceOnUse">
<stop stop-color="#E78B1F"/>
<stop offset="1" stop-color="#FFDB45"/>
</linearGradient>
</defs>
</svg>
